<svg width="57" height="57" viewBox="0 0 57 57" fill="none" xmlns="http://www.w3.org/2000/svg">
<g id="Group">
<path id="Vector" d="M28.5 55C43.1355 55 55 43.1355 55 28.5C55 13.8645 43.1355 2 28.5 2C13.8645 2 2 13.8645 2 28.5C2 43.1355 13.8645 55 28.5 55Z" stroke="#989898" stroke-width="4" stroke-linecap="round" stroke-linejoin="round"/>
<path id="Vector_2" d="M26.4595 21.8426L37.3333 19.6667L35.1573 30.5405C34.9296 31.6802 34.3696 32.727 33.5481 33.5491C32.7265 34.3712 31.68 34.9318 30.5405 35.1603L19.6666 37.3333L21.8426 26.4595C22.0709 25.3203 22.631 24.2741 23.4526 23.4526C24.2741 22.6311 25.3203 22.0709 26.4595 21.8426Z" stroke="#989898" stroke-width="4" stroke-linecap="round" stroke-linejoin="round"/>
</g>
</svg>
