<svg width="41" height="41" viewBox="0 0 41 41" fill="none" xmlns="http://www.w3.org/2000/svg">
<g id="Group">
<path id="Vector" d="M6.26923 10.5385C8.62706 10.5385 10.5385 8.62706 10.5385 6.26923C10.5385 3.9114 8.62706 2 6.26923 2C3.9114 2 2 3.9114 2 6.26923C2 8.62706 3.9114 10.5385 6.26923 10.5385Z" stroke="#989898" stroke-width="3" stroke-linecap="round" stroke-linejoin="round"/>
<path id="Vector_2" d="M10.5387 6.26923H39.0002" stroke="#989898" stroke-width="3" stroke-linecap="round" stroke-linejoin="round"/>
<path id="Vector_3" d="M20.5001 24.7692C22.8579 24.7692 24.7693 22.8578 24.7693 20.5C24.7693 18.1422 22.8579 16.2308 20.5001 16.2308C18.1422 16.2308 16.2308 18.1422 16.2308 20.5C16.2308 22.8578 18.1422 24.7692 20.5001 24.7692Z" stroke="#989898" stroke-width="3" stroke-linecap="round" stroke-linejoin="round"/>
<path id="Vector_4" d="M2 20.5H16.2308M24.7692 20.5H39" stroke="#989898" stroke-width="3" stroke-linecap="round" stroke-linejoin="round"/>
<path id="Vector_5" d="M34.7309 39C37.0887 39 39.0001 37.0886 39.0001 34.7308C39.0001 32.3729 37.0887 30.4615 34.7309 30.4615C32.3731 30.4615 30.4617 32.3729 30.4617 34.7308C30.4617 37.0886 32.3731 39 34.7309 39Z" stroke="#989898" stroke-width="3" stroke-linecap="round" stroke-linejoin="round"/>
<path id="Vector_6" d="M30.4615 34.7308H2" stroke="#989898" stroke-width="3" stroke-linecap="round" stroke-linejoin="round"/>
</g>
</svg>
