<svg width="44" height="41" viewBox="0 0 44 41" fill="none" xmlns="http://www.w3.org/2000/svg">
<path id="Vector" d="M12.8824 12.8824H30.2941M12.8824 21.5882H25.9412M34.6471 2C36.3788 2 38.0396 2.68792 39.2641 3.91242C40.4886 5.13692 41.1765 6.7977 41.1765 8.52941V25.9412C41.1765 27.6729 40.4886 29.3337 39.2641 30.5582C38.0396 31.7827 36.3788 32.4706 34.6471 32.4706H23.7647L12.8824 39V32.4706H8.52941C6.7977 32.4706 5.13692 31.7827 3.91242 30.5582C2.68792 29.3337 2 27.6729 2 25.9412V8.52941C2 6.7977 2.68792 5.13692 3.91242 3.91242C5.13692 2.68792 6.7977 2 8.52941 2H34.6471Z" stroke="#989898" stroke-width="4" stroke-linecap="round" stroke-linejoin="round"/>
</svg>
