<svg width="42" height="42" viewBox="0 0 42 42" fill="none" xmlns="http://www.w3.org/2000/svg">
<path id="Vector" d="M20.5714 2V0V2ZM39.1429 32.5714C40.2474 32.5714 41.1429 31.676 41.1429 30.5714C41.1429 29.4669 40.2474 28.5714 39.1429 28.5714V32.5714ZM2 28.5714C0.89543 28.5714 0 29.4669 0 30.5714C0 31.676 0.89543 32.5714 2 32.5714V28.5714ZM18.2212 35.2961L17.7173 33.3606L13.8463 34.3684L14.3502 36.3039L18.2212 35.2961ZM26.7926 36.3039C27.0709 35.235 26.43 34.1428 25.361 33.8645C24.2921 33.5862 23.1999 34.2272 22.9217 35.2961L26.7926 36.3039ZM20.5714 4C23.2918 4 25.9007 5.08066 27.8243 7.00425L30.6528 4.17582C27.979 1.50209 24.3527 0 20.5714 0V4ZM27.8243 7.00425C29.7479 8.92783 30.8286 11.5368 30.8286 14.2571H34.8286C34.8286 10.4759 33.3265 6.84955 30.6528 4.17582L27.8243 7.00425ZM30.8286 14.2571C30.8286 21.2897 32.1076 25.7601 33.7626 28.5464C34.5927 29.9439 35.5225 30.9243 36.4323 31.5699C37.2941 32.1815 38.2562 32.5714 39.1429 32.5714V28.5714C39.3581 28.5714 39.1952 28.6257 38.7472 28.3078C38.3472 28.0239 37.7823 27.4811 37.2017 26.5036C36.0353 24.5399 34.8286 20.8531 34.8286 14.2571H30.8286ZM39.1429 28.5714H2V32.5714H39.1429V28.5714ZM2 32.5714C2.89315 32.5714 3.8592 32.1803 4.72472 31.5644C5.63658 30.9155 6.56511 29.9317 7.39277 28.5326C9.04279 25.7435 10.3143 21.2744 10.3143 14.2571H6.31429C6.31429 20.8399 5.11436 24.5279 3.95009 26.496C3.37061 27.4755 2.80627 28.0202 2.40564 28.3053C1.95866 28.6233 1.79256 28.5714 2 28.5714V32.5714ZM10.3143 14.2571C10.3143 11.5368 11.3949 8.92783 13.3185 7.00425L10.4901 4.17582C7.81637 6.84955 6.31429 10.4759 6.31429 14.2571H10.3143ZM13.3185 7.00425C15.2421 5.08066 17.8511 4 20.5714 4V0C16.7902 0 13.1638 1.50209 10.4901 4.17582L13.3185 7.00425ZM14.3502 36.3039C14.7087 37.681 15.514 38.9002 16.6399 39.7704L19.0862 36.6057C18.6609 36.2769 18.3566 35.8163 18.2212 35.2961L14.3502 36.3039ZM16.6399 39.7704C17.7657 40.6407 19.1485 41.1128 20.5714 41.1128V37.1128C20.0339 37.1128 19.5115 36.9345 19.0862 36.6057L16.6399 39.7704ZM20.5714 41.1128C21.9944 41.1128 23.3772 40.6407 24.503 39.7704L22.0567 36.6057C21.6314 36.9345 21.109 37.1128 20.5714 37.1128V41.1128ZM24.503 39.7704C25.6288 38.9002 26.4341 37.681 26.7926 36.3039L22.9217 35.2961C22.7862 35.8163 22.482 36.2769 22.0567 36.6057L24.503 39.7704Z" fill="#989898"/>
</svg>
