<svg width="57" height="57" viewBox="0 0 57 57" fill="none" xmlns="http://www.w3.org/2000/svg">
<g id="Group">
<path id="Vector" d="M13.2115 24.4231C19.4035 24.4231 24.4231 19.4035 24.4231 13.2115C24.4231 7.01958 19.4035 2 13.2115 2C7.01958 2 2 7.01958 2 13.2115C2 19.4035 7.01958 24.4231 13.2115 24.4231Z" stroke="#00C2FF" stroke-width="4" stroke-linecap="round" stroke-linejoin="round"/>
<path id="Vector_2" d="M43.7884 24.4231C49.9804 24.4231 55 19.4035 55 13.2115C55 7.01958 49.9804 2 43.7884 2C37.5965 2 32.5769 7.01958 32.5769 13.2115C32.5769 19.4035 37.5965 24.4231 43.7884 24.4231Z" stroke="#00C2FF" stroke-width="4" stroke-linecap="round" stroke-linejoin="round"/>
<path id="Vector_3" d="M13.2115 55C19.4035 55 24.4231 49.9804 24.4231 43.7885C24.4231 37.5965 19.4035 32.5769 13.2115 32.5769C7.01958 32.5769 2 37.5965 2 43.7885C2 49.9804 7.01958 55 13.2115 55Z" stroke="#00C2FF" stroke-width="4" stroke-linecap="round" stroke-linejoin="round"/>
<path id="Vector_4" d="M43.7884 55C49.9804 55 55 49.9804 55 43.7885C55 37.5965 49.9804 32.5769 43.7884 32.5769C37.5965 32.5769 32.5769 37.5965 32.5769 43.7885C32.5769 49.9804 37.5965 55 43.7884 55Z" stroke="#00C2FF" stroke-width="4" stroke-linecap="round" stroke-linejoin="round"/>
</g>
</svg>
