<svg width="57" height="57" viewBox="0 0 57 57" fill="none" xmlns="http://www.w3.org/2000/svg">
<g id="Group">
<path id="Vector" d="M34.3889 15.25V8.625C34.3889 6.86794 33.7685 5.18285 32.6641 3.94042C31.5597 2.69799 30.0618 2 28.5 2H7.88889C6.32706 2 4.8292 2.69799 3.72482 3.94042C2.62043 5.18285 2 6.86794 2 8.625V48.375C2 50.1321 2.62043 51.8172 3.72482 53.0596C4.8292 54.302 6.32706 55 7.88889 55H28.5C30.0618 55 31.5597 54.302 32.6641 53.0596C33.7685 51.8172 34.3889 50.1321 34.3889 48.375V41.75" stroke="#FF2424" stroke-width="4" stroke-linecap="round" stroke-linejoin="round"/>
<path id="Vector_2" d="M19.6666 28.5H55M55 28.5L46.1666 18.5625M55 28.5L46.1666 38.4375" stroke="#FF2424" stroke-width="4" stroke-linecap="round" stroke-linejoin="round"/>
</g>
</svg>
