<svg width="53" height="53" viewBox="0 0 53 53" fill="none" xmlns="http://www.w3.org/2000/svg">
<path id="Vector" d="M48.6696 28.2488C48.2372 27.7652 47.9987 27.1436 47.9987 26.5C47.9987 25.8564 48.2372 25.2348 48.6696 24.7512L52.1223 20.9358C52.5027 20.5189 52.739 19.9943 52.7971 19.4374C52.8553 18.8805 52.7323 18.3197 52.4459 17.8357L47.0512 8.66792C46.7677 8.18442 46.3361 7.80117 45.8179 7.57279C45.2996 7.34442 44.7212 7.28258 44.165 7.3961L39.094 8.40296C38.4488 8.53393 37.777 8.42837 37.2056 8.1062C36.6341 7.78403 36.2024 7.26755 35.9921 6.6542L34.3467 1.80536C34.1657 1.27908 33.821 0.821984 33.3611 0.498667C32.9013 0.17535 32.3497 0.00216952 31.7842 0.0036034H20.9947C20.4065 -0.0265549 19.8245 0.133241 19.3374 0.458584C18.8503 0.783927 18.4851 1.25693 18.2974 1.80536L16.7869 6.6542C16.5765 7.26755 16.1448 7.78403 15.5734 8.1062C15.0019 8.42837 14.3302 8.53393 13.6849 8.40296L8.47901 7.3961C7.95181 7.32292 7.41436 7.40464 6.93436 7.63096C6.45436 7.85729 6.05328 8.21809 5.78165 8.66792L0.386938 17.8357C0.0933583 18.3143 -0.0386449 18.8719 0.00980097 19.4287C0.0582468 19.9855 0.284661 20.513 0.656674 20.9358L4.08232 24.7512C4.51476 25.2348 4.75324 25.8564 4.75324 26.5C4.75324 27.1436 4.51476 27.7652 4.08232 28.2488L0.656674 32.0642C0.284661 32.487 0.0582468 33.0145 0.00980097 33.5713C-0.0386449 34.1281 0.0933583 34.6857 0.386938 35.1643L5.78165 44.3321C6.06514 44.8156 6.49677 45.1988 7.01503 45.4272C7.53328 45.6556 8.1117 45.7174 8.66783 45.6039L13.7389 44.597C14.3841 44.4661 15.0559 44.5716 15.6273 44.8938C16.1988 45.216 16.6304 45.7325 16.8408 46.3458L18.4862 51.1946C18.6739 51.7431 19.0392 52.2161 19.5262 52.5414C20.0133 52.8668 20.5954 53.0266 21.1836 52.9964H31.973C32.5385 52.9978 33.0901 52.8246 33.5499 52.5013C34.0098 52.178 34.3545 51.7209 34.5355 51.1946L36.1809 46.3458C36.3913 45.7325 36.8229 45.216 37.3944 44.8938C37.9658 44.5716 38.6376 44.4661 39.2828 44.597L44.3539 45.6039C44.91 45.7174 45.4884 45.6556 46.0067 45.4272C46.5249 45.1988 46.9566 44.8156 47.24 44.3321L52.6348 35.1643C52.9211 34.6803 53.0441 34.1195 52.9859 33.5626C52.9278 33.0057 52.6915 32.4811 52.3111 32.0642L48.6696 28.2488ZM44.6506 31.7993L46.8085 34.184L43.3558 40.0662L40.173 39.4302C38.2303 39.0401 36.2094 39.3643 34.4939 40.3412C32.7785 41.3181 31.4879 42.8797 30.8671 44.7295L29.8421 47.6971H22.9368L21.9658 44.6765C21.345 42.8267 20.0544 41.2651 18.3389 40.2882C16.6235 39.3113 14.6026 38.9872 12.6599 39.3773L9.47703 40.0132L5.97047 34.1575L8.12835 31.7728C9.45533 30.3154 10.189 28.4288 10.189 26.4735C10.189 24.5182 9.45533 22.6316 8.12835 21.1742L5.97047 18.7895L9.42309 12.9603L12.606 13.5963C14.5487 13.9863 16.5695 13.6622 18.285 12.6853C20.0005 11.7084 21.2911 10.1468 21.9118 8.29698L22.9368 5.30288H29.8421L30.8671 8.32347C31.4879 10.1733 32.7785 11.7349 34.4939 12.7118C36.2094 13.6887 38.2303 14.0128 40.173 13.6228L43.3558 12.9868L46.8085 18.869L44.6506 21.2537C43.3385 22.7077 42.614 24.5835 42.614 26.5265C42.614 28.4695 43.3385 30.3453 44.6506 31.7993ZM26.3895 15.9014C24.2555 15.9014 22.1695 16.523 20.3952 17.6876C18.6209 18.8522 17.238 20.5075 16.4213 22.4441C15.6047 24.3807 15.391 26.5118 15.8073 28.5677C16.2237 30.6236 17.2513 32.5121 18.7602 33.9943C20.2691 35.4765 22.1916 36.486 24.2845 36.8949C26.3775 37.3039 28.5469 37.094 30.5184 36.2918C32.4899 35.4896 34.175 34.1312 35.3605 32.3882C36.5461 30.6453 37.1789 28.5962 37.1789 26.5C37.1789 23.6891 36.0421 20.9933 34.0187 19.0057C31.9953 17.0181 29.251 15.9014 26.3895 15.9014ZM26.3895 31.7993C25.3225 31.7993 24.2795 31.4885 23.3923 30.9062C22.5052 30.3239 21.8137 29.4963 21.4054 28.5279C20.9971 27.5596 20.8903 26.4941 21.0984 25.4662C21.3066 24.4382 21.8204 23.494 22.5748 22.7528C23.3293 22.0117 24.2905 21.507 25.337 21.3025C26.3835 21.0981 27.4682 21.203 28.4539 21.6041C29.4397 22.0052 30.2822 22.6844 30.875 23.5559C31.4678 24.4273 31.7842 25.4519 31.7842 26.5C31.7842 27.9055 31.2158 29.2533 30.2041 30.2472C29.1924 31.241 27.8202 31.7993 26.3895 31.7993Z" fill="#989898"/>
</svg>
